<svg width="284" height="44" viewBox="0 0 284 44" fill="none" xmlns="http://www.w3.org/2000/svg">
<path d="M280.731 0H3.26431C1.46148 0 0 1.34315 0 3V41C0 42.6569 1.46148 44 3.26431 44H280.731C282.534 44 283.995 42.6569 283.995 41V3C283.995 1.34315 282.534 0 280.731 0Z" fill="white"/>
<path d="M280.731 0.5H3.2642C1.76185 0.5 0.543945 1.61929 0.543945 3V41C0.543945 42.3807 1.76185 43.5 3.2642 43.5H280.731C282.233 43.5 283.451 42.3807 283.451 41V3C283.451 1.61929 282.233 0.5 280.731 0.5Z" stroke="#EBEBEB" stroke-linejoin="round"/>
<path d="M49.7624 27.408V28H43.9224V27.408H46.5224V18.224C46.5224 18.0427 46.5304 17.8507 46.5464 17.648L44.0504 19.864C43.9757 19.928 43.901 19.952 43.8264 19.936C43.7517 19.92 43.693 19.888 43.6504 19.84L43.4184 19.52L46.6904 16.632H47.2904V27.408H49.7624Z" fill="#EF5B70"/>
<path d="M80.7384 27.28C80.8237 27.28 80.8904 27.3067 80.9384 27.36C80.9864 27.408 81.0104 27.472 81.0104 27.552V28H73.7064V27.728C73.7064 27.6693 73.7197 27.6107 73.7464 27.552C73.7784 27.488 73.8184 27.4347 73.8664 27.392L77.7304 23.48C78.0504 23.1547 78.3464 22.84 78.6184 22.536C78.8904 22.232 79.125 21.9253 79.3224 21.616C79.525 21.3067 79.6824 20.9893 79.7944 20.664C79.9064 20.3387 79.9624 19.992 79.9624 19.624C79.9624 19.208 79.893 18.848 79.7544 18.544C79.6157 18.2347 79.4317 17.9813 79.2024 17.784C78.973 17.5867 78.7064 17.44 78.4024 17.344C78.0984 17.248 77.7837 17.2 77.4584 17.2C77.101 17.2 76.7704 17.256 76.4664 17.368C76.1677 17.4747 75.901 17.6267 75.6664 17.824C75.437 18.016 75.245 18.248 75.0904 18.52C74.941 18.7867 74.837 19.08 74.7784 19.4C74.741 19.5173 74.6904 19.5947 74.6264 19.632C74.5677 19.6693 74.485 19.6827 74.3784 19.672L73.9864 19.608C74.0557 19.1227 74.189 18.6907 74.3864 18.312C74.5837 17.9333 74.8344 17.6133 75.1384 17.352C75.4424 17.0907 75.7944 16.8933 76.1944 16.76C76.5944 16.6213 77.0264 16.552 77.4904 16.552C77.9224 16.552 78.333 16.616 78.7224 16.744C79.117 16.8667 79.4637 17.056 79.7624 17.312C80.0664 17.5627 80.3064 17.88 80.4824 18.264C80.6584 18.6427 80.7464 19.088 80.7464 19.6C80.7464 20.0267 80.6797 20.424 80.5464 20.792C80.4184 21.1547 80.2424 21.504 80.0184 21.84C79.7944 22.176 79.533 22.504 79.2344 22.824C78.941 23.1387 78.6317 23.4613 78.3064 23.792L74.7624 27.408C74.933 27.3653 75.109 27.3333 75.2904 27.312C75.477 27.2907 75.6637 27.28 75.8504 27.28H80.7384ZM105.034 19.608C105.104 19.1227 105.237 18.6907 105.434 18.312C105.632 17.9333 105.882 17.6133 106.186 17.352C106.49 17.0907 106.842 16.8933 107.242 16.76C107.642 16.6213 108.074 16.552 108.538 16.552C108.97 16.552 109.378 16.6133 109.762 16.736C110.146 16.8533 110.482 17.032 110.77 17.272C111.064 17.512 111.293 17.8107 111.458 18.168C111.629 18.5253 111.714 18.9387 111.714 19.408C111.714 19.776 111.658 20.1093 111.546 20.408C111.434 20.7013 111.277 20.96 111.074 21.184C110.877 21.408 110.642 21.5973 110.37 21.752C110.098 21.9013 109.802 22.016 109.482 22.096C110.314 22.2507 110.941 22.5733 111.362 23.064C111.789 23.5493 112.002 24.1573 112.002 24.888C112.002 25.352 111.909 25.784 111.722 26.184C111.536 26.5787 111.28 26.92 110.954 27.208C110.629 27.496 110.245 27.7227 109.802 27.888C109.36 28.048 108.88 28.128 108.362 28.128C107.717 28.128 107.178 28.0427 106.746 27.872C106.32 27.696 105.968 27.4693 105.69 27.192C105.413 26.9147 105.197 26.6053 105.042 26.264C104.888 25.9173 104.762 25.5733 104.666 25.232L104.97 25.104C105.056 25.0667 105.144 25.056 105.234 25.072C105.33 25.088 105.4 25.1493 105.442 25.256C105.469 25.32 105.504 25.4213 105.546 25.56C105.594 25.6933 105.661 25.8427 105.746 26.008C105.832 26.1733 105.941 26.344 106.074 26.52C106.213 26.6907 106.384 26.848 106.586 26.992C106.794 27.136 107.042 27.2533 107.33 27.344C107.618 27.4347 107.96 27.48 108.354 27.48C108.834 27.48 109.253 27.4 109.61 27.24C109.973 27.08 110.274 26.8773 110.514 26.632C110.76 26.3813 110.941 26.104 111.058 25.8C111.181 25.4907 111.242 25.192 111.242 24.904C111.242 24.5573 111.186 24.2347 111.074 23.936C110.968 23.6373 110.786 23.3813 110.53 23.168C110.274 22.9493 109.936 22.7787 109.514 22.656C109.098 22.528 108.584 22.464 107.97 22.464V21.912C108.461 21.9013 108.893 21.8373 109.266 21.72C109.64 21.5973 109.952 21.432 110.202 21.224C110.453 21.016 110.642 20.768 110.77 20.48C110.898 20.192 110.962 19.8747 110.962 19.528C110.962 19.128 110.896 18.7813 110.762 18.488C110.629 18.1947 110.45 17.952 110.226 17.76C110.002 17.568 109.741 17.4267 109.442 17.336C109.144 17.2453 108.832 17.2 108.506 17.2C108.149 17.2 107.818 17.256 107.514 17.368C107.21 17.4747 106.941 17.6267 106.706 17.824C106.477 18.016 106.285 18.248 106.13 18.52C105.976 18.7867 105.869 19.08 105.81 19.4C105.778 19.5173 105.733 19.5947 105.674 19.632C105.616 19.6693 105.533 19.6827 105.426 19.672L105.034 19.608ZM140.81 24.144V18.216C140.81 18.1253 140.813 18.0267 140.818 17.92C140.829 17.8133 140.84 17.704 140.85 17.592L135.954 24.144H140.81ZM143.554 24.144V24.56C143.554 24.6187 143.536 24.6667 143.498 24.704C143.466 24.736 143.413 24.752 143.338 24.752H141.482V28H140.81V24.752H135.458C135.378 24.752 135.317 24.736 135.274 24.704C135.232 24.6667 135.202 24.6187 135.186 24.56L135.114 24.184L140.802 16.664H141.482V24.144H143.554ZM168.266 21.16C168.624 21.0693 168.96 21.0053 169.274 20.968C169.594 20.9253 169.898 20.904 170.186 20.904C170.778 20.904 171.298 20.9893 171.746 21.16C172.194 21.3253 172.568 21.56 172.866 21.864C173.17 22.1627 173.397 22.52 173.546 22.936C173.701 23.352 173.778 23.8053 173.778 24.296C173.778 24.8933 173.674 25.4293 173.466 25.904C173.264 26.3733 172.984 26.7733 172.626 27.104C172.269 27.4347 171.853 27.688 171.378 27.864C170.904 28.04 170.4 28.128 169.866 28.128C169.557 28.128 169.258 28.0987 168.97 28.04C168.688 27.9867 168.421 27.9147 168.17 27.824C167.925 27.728 167.696 27.6187 167.482 27.496C167.274 27.3733 167.09 27.248 166.93 27.12L167.162 26.808C167.21 26.728 167.285 26.688 167.386 26.688C167.456 26.688 167.554 26.728 167.682 26.808C167.816 26.888 167.984 26.976 168.186 27.072C168.394 27.168 168.64 27.256 168.922 27.336C169.205 27.416 169.533 27.456 169.906 27.456C170.344 27.456 170.752 27.3867 171.13 27.248C171.509 27.104 171.837 26.8987 172.114 26.632C172.392 26.3653 172.608 26.0373 172.762 25.648C172.922 25.2533 173.002 24.808 173.002 24.312C173.002 23.9067 172.941 23.5333 172.818 23.192C172.701 22.8507 172.52 22.56 172.274 22.32C172.034 22.0747 171.728 21.8853 171.354 21.752C170.986 21.6133 170.552 21.544 170.05 21.544C169.746 21.544 169.424 21.568 169.082 21.616C168.741 21.664 168.378 21.7413 167.994 21.848L167.506 21.696L168.386 16.68H173.482V17.008C173.482 17.1147 173.445 17.2053 173.37 17.28C173.301 17.3493 173.189 17.384 173.034 17.384H168.938L168.266 21.16ZM201.418 27.496C201.877 27.496 202.29 27.424 202.658 27.28C203.026 27.136 203.338 26.9387 203.594 26.688C203.856 26.432 204.056 26.1307 204.194 25.784C204.333 25.432 204.402 25.0507 204.402 24.64C204.402 24.208 204.333 23.8187 204.194 23.472C204.061 23.12 203.869 22.824 203.618 22.584C203.373 22.3387 203.08 22.152 202.738 22.024C202.397 21.8907 202.018 21.824 201.602 21.824C201.133 21.824 200.712 21.9067 200.338 22.072C199.97 22.232 199.658 22.4427 199.402 22.704C199.146 22.96 198.952 23.2533 198.818 23.584C198.685 23.9147 198.618 24.248 198.618 24.584C198.618 25.0053 198.682 25.3947 198.81 25.752C198.944 26.1093 199.13 26.4187 199.37 26.68C199.61 26.936 199.904 27.136 200.25 27.28C200.597 27.424 200.986 27.496 201.418 27.496ZM200.106 21.088C199.941 21.3067 199.789 21.512 199.65 21.704C199.512 21.896 199.386 22.0853 199.274 22.272C199.589 21.9467 199.962 21.6933 200.394 21.512C200.826 21.3253 201.298 21.232 201.81 21.232C202.296 21.232 202.744 21.312 203.154 21.472C203.565 21.632 203.917 21.8587 204.21 22.152C204.509 22.44 204.741 22.792 204.906 23.208C205.077 23.6187 205.162 24.08 205.162 24.592C205.162 25.104 205.069 25.576 204.882 26.008C204.701 26.44 204.445 26.8133 204.114 27.128C203.789 27.4427 203.397 27.688 202.938 27.864C202.48 28.04 201.976 28.128 201.426 28.128C200.898 28.128 200.416 28.0427 199.978 27.872C199.541 27.7013 199.165 27.456 198.85 27.136C198.541 26.816 198.301 26.4267 198.13 25.968C197.96 25.504 197.874 24.9813 197.874 24.4C197.874 23.9573 197.986 23.4587 198.21 22.904C198.434 22.344 198.802 21.7173 199.314 21.024L202.402 16.864C202.493 16.7413 202.629 16.68 202.81 16.68H203.482L200.106 21.088ZM207.196 27.384C207.196 27.2827 207.214 27.1867 207.252 27.096C207.289 27.0053 207.34 26.928 207.404 26.864C207.473 26.7947 207.55 26.7413 207.636 26.704C207.726 26.6613 207.825 26.64 207.932 26.64C208.033 26.64 208.129 26.6613 208.22 26.704C208.31 26.7413 208.388 26.7947 208.452 26.864C208.521 26.928 208.574 27.0053 208.612 27.096C208.654 27.1867 208.676 27.2827 208.676 27.384C208.676 27.4907 208.654 27.5893 208.612 27.68C208.574 27.7653 208.521 27.8427 208.452 27.912C208.388 27.976 208.31 28.0267 208.22 28.064C208.129 28.1013 208.033 28.12 207.932 28.12C207.724 28.12 207.548 28.0507 207.404 27.912C207.265 27.768 207.196 27.592 207.196 27.384ZM210.93 27.384C210.93 27.2827 210.949 27.1867 210.986 27.096C211.023 27.0053 211.074 26.928 211.138 26.864C211.207 26.7947 211.285 26.7413 211.37 26.704C211.461 26.6613 211.559 26.64 211.666 26.64C211.767 26.64 211.863 26.6613 211.954 26.704C212.045 26.7413 212.122 26.7947 212.186 26.864C212.255 26.928 212.309 27.0053 212.346 27.096C212.389 27.1867 212.41 27.2827 212.41 27.384C212.41 27.4907 212.389 27.5893 212.346 27.68C212.309 27.7653 212.255 27.8427 212.186 27.912C212.122 27.976 212.045 28.0267 211.954 28.064C211.863 28.1013 211.767 28.12 211.666 28.12C211.458 28.12 211.282 28.0507 211.138 27.912C210.999 27.768 210.93 27.592 210.93 27.384ZM214.664 27.384C214.664 27.2827 214.683 27.1867 214.72 27.096C214.758 27.0053 214.808 26.928 214.872 26.864C214.942 26.7947 215.019 26.7413 215.104 26.704C215.195 26.6613 215.294 26.64 215.4 26.64C215.502 26.64 215.598 26.6613 215.688 26.704C215.779 26.7413 215.856 26.7947 215.92 26.864C215.99 26.928 216.043 27.0053 216.08 27.096C216.123 27.1867 216.144 27.2827 216.144 27.384C216.144 27.4907 216.123 27.5893 216.08 27.68C216.043 27.7653 215.99 27.8427 215.92 27.912C215.856 27.976 215.779 28.0267 215.688 28.064C215.598 28.1013 215.502 28.12 215.4 28.12C215.192 28.12 215.016 28.0507 214.872 27.912C214.734 27.768 214.664 27.592 214.664 27.384ZM218.399 27.384C218.399 27.2827 218.417 27.1867 218.455 27.096C218.492 27.0053 218.543 26.928 218.607 26.864C218.676 26.7947 218.753 26.7413 218.839 26.704C218.929 26.6613 219.028 26.64 219.135 26.64C219.236 26.64 219.332 26.6613 219.423 26.704C219.513 26.7413 219.591 26.7947 219.655 26.864C219.724 26.928 219.777 27.0053 219.815 27.096C219.857 27.1867 219.879 27.2827 219.879 27.384C219.879 27.4907 219.857 27.5893 219.815 27.68C219.777 27.7653 219.724 27.8427 219.655 27.912C219.591 27.976 219.513 28.0267 219.423 28.064C219.332 28.1013 219.236 28.12 219.135 28.12C218.927 28.12 218.751 28.0507 218.607 27.912C218.468 27.768 218.399 27.592 218.399 27.384ZM222.133 27.384C222.133 27.2827 222.152 27.1867 222.189 27.096C222.226 27.0053 222.277 26.928 222.341 26.864C222.41 26.7947 222.488 26.7413 222.573 26.704C222.664 26.6613 222.762 26.64 222.869 26.64C222.97 26.64 223.066 26.6613 223.157 26.704C223.248 26.7413 223.325 26.7947 223.389 26.864C223.458 26.928 223.512 27.0053 223.549 27.096C223.592 27.1867 223.613 27.2827 223.613 27.384C223.613 27.4907 223.592 27.5893 223.549 27.68C223.512 27.7653 223.458 27.8427 223.389 27.912C223.325 27.976 223.248 28.0267 223.157 28.064C223.066 28.1013 222.97 28.12 222.869 28.12C222.661 28.12 222.485 28.0507 222.341 27.912C222.202 27.768 222.133 27.592 222.133 27.384ZM232.692 27.28C232.777 27.28 232.844 27.3067 232.892 27.36C232.94 27.408 232.964 27.472 232.964 27.552V28H225.66V27.728C225.66 27.6693 225.673 27.6107 225.7 27.552C225.732 27.488 225.772 27.4347 225.82 27.392L229.684 23.48C230.004 23.1547 230.3 22.84 230.572 22.536C230.844 22.232 231.078 21.9253 231.276 21.616C231.478 21.3067 231.636 20.9893 231.748 20.664C231.86 20.3387 231.916 19.992 231.916 19.624C231.916 19.208 231.846 18.848 231.708 18.544C231.569 18.2347 231.385 17.9813 231.156 17.784C230.926 17.5867 230.66 17.44 230.356 17.344C230.052 17.248 229.737 17.2 229.412 17.2C229.054 17.2 228.724 17.256 228.42 17.368C228.121 17.4747 227.854 17.6267 227.62 17.824C227.39 18.016 227.198 18.248 227.044 18.52C226.894 18.7867 226.79 19.08 226.732 19.4C226.694 19.5173 226.644 19.5947 226.58 19.632C226.521 19.6693 226.438 19.6827 226.332 19.672L225.94 19.608C226.009 19.1227 226.142 18.6907 226.34 18.312C226.537 17.9333 226.788 17.6133 227.092 17.352C227.396 17.0907 227.748 16.8933 228.148 16.76C228.548 16.6213 228.98 16.552 229.444 16.552C229.876 16.552 230.286 16.616 230.676 16.744C231.07 16.8667 231.417 17.056 231.716 17.312C232.02 17.5627 232.26 17.88 232.436 18.264C232.612 18.6427 232.7 19.088 232.7 19.6C232.7 20.0267 232.633 20.424 232.5 20.792C232.372 21.1547 232.196 21.504 231.972 21.84C231.748 22.176 231.486 22.504 231.188 22.824C230.894 23.1387 230.585 23.4613 230.26 23.792L226.716 27.408C226.886 27.3653 227.062 27.3333 227.244 27.312C227.43 27.2907 227.617 27.28 227.804 27.28H232.692ZM242.717 22.336C242.717 23.328 242.61 24.1867 242.397 24.912C242.183 25.6373 241.893 26.2373 241.525 26.712C241.157 27.1867 240.725 27.5413 240.229 27.776C239.738 28.0053 239.213 28.12 238.653 28.12C238.093 28.12 237.567 28.0053 237.077 27.776C236.586 27.5413 236.157 27.1867 235.789 26.712C235.421 26.2373 235.13 25.6373 234.917 24.912C234.709 24.1867 234.605 23.328 234.605 22.336C234.605 21.344 234.709 20.4853 234.917 19.76C235.13 19.0347 235.421 18.4347 235.789 17.96C236.157 17.4853 236.586 17.1333 237.077 16.904C237.567 16.6693 238.093 16.552 238.653 16.552C239.213 16.552 239.738 16.6693 240.229 16.904C240.725 17.1333 241.157 17.4853 241.525 17.96C241.893 18.4347 242.183 19.0347 242.397 19.76C242.61 20.4853 242.717 21.344 242.717 22.336ZM241.917 22.336C241.917 21.4187 241.829 20.6347 241.653 19.984C241.477 19.3333 241.239 18.8027 240.941 18.392C240.647 17.976 240.301 17.672 239.901 17.48C239.506 17.288 239.09 17.192 238.653 17.192C238.215 17.192 237.799 17.288 237.405 17.48C237.01 17.672 236.663 17.976 236.365 18.392C236.066 18.8027 235.829 19.3333 235.653 19.984C235.477 20.6347 235.389 21.4187 235.389 22.336C235.389 23.2587 235.477 24.0453 235.653 24.696C235.829 25.3413 236.066 25.872 236.365 26.288C236.663 26.6987 237.01 27 237.405 27.192C237.799 27.3787 238.215 27.472 238.653 27.472C239.09 27.472 239.506 27.3787 239.901 27.192C240.301 27 240.647 26.6987 240.941 26.288C241.239 25.872 241.477 25.3413 241.653 24.696C241.829 24.0453 241.917 23.2587 241.917 22.336Z" fill="#C4C4C4"/>
</svg>
