<svg width="148" height="32" viewBox="0 0 148 32" fill="none" xmlns="http://www.w3.org/2000/svg">
<path d="M31.4506 0H0V32H31.4506V0Z" fill="white"/>
<path d="M19.0884 16.28L19.5069 13.616H16.8902V11.8873C16.8902 11.1585 17.2557 10.4481 18.4277 10.4481H19.6172V8.17997C19.6172 8.17997 18.5377 8 17.5056 8C15.3507 8 13.9422 9.27593 13.9422 11.5857V13.616H11.5469V16.28H13.9422V22.72H16.8902V16.28H19.0884Z" fill="black"/>
<path d="M70.1889 0H38.7383V32H70.1889V0Z" fill="#F16D7F"/>
<g clip-path="url(#clip0_24_224)">
<path d="M54.139 12.6816C52.0238 12.6816 50.3177 14.3849 50.3177 16.4966C50.3177 18.6083 52.0238 20.3117 54.139 20.3117C56.2541 20.3117 57.9602 18.6083 57.9602 16.4966C57.9602 14.3849 56.2541 12.6816 54.139 12.6816ZM54.139 18.9769C52.7721 18.9769 51.6547 17.8646 51.6547 16.4966C51.6547 15.1287 52.7688 14.0164 54.139 14.0164C55.5092 14.0164 56.6233 15.1287 56.6233 16.4966C56.6233 17.8646 55.5058 18.9769 54.139 18.9769ZM59.0078 12.5255C59.0078 13.0203 58.6087 13.4154 58.1165 13.4154C57.621 13.4154 57.2252 13.0169 57.2252 12.5255C57.2252 12.0341 57.6243 11.6357 58.1165 11.6357C58.6087 11.6357 59.0078 12.0341 59.0078 12.5255ZM61.5386 13.4287C61.4821 12.2367 61.2094 11.1808 60.3347 10.3109C59.4634 9.44097 58.4058 9.1687 57.2119 9.10894C55.9814 9.03921 52.2932 9.03921 51.0627 9.10894C49.8721 9.16538 48.8145 9.43765 47.9399 10.3076C47.0652 11.1775 46.7958 12.2333 46.736 13.4253C46.6661 14.6539 46.6661 18.3361 46.736 19.5646C46.7925 20.7566 47.0652 21.8124 47.9399 22.6824C48.8145 23.5523 49.8688 23.8246 51.0627 23.8843C52.2932 23.9541 55.9814 23.9541 57.2119 23.8843C58.4058 23.8279 59.4634 23.5556 60.3347 22.6824C61.2061 21.8124 61.4788 20.7566 61.5386 19.5646C61.6085 18.3361 61.6085 14.6572 61.5386 13.4287ZM59.949 20.8828C59.6895 21.5335 59.1874 22.0349 58.5322 22.2972C57.5511 22.6857 55.2231 22.596 54.139 22.596C53.0548 22.596 50.7235 22.6824 49.7457 22.2972C49.0939 22.0382 48.5917 21.5369 48.329 20.8828C47.9399 19.9033 48.0297 17.5791 48.0297 16.4966C48.0297 15.4142 47.9432 13.0867 48.329 12.1105C48.5884 11.4597 49.0906 10.9583 49.7457 10.696C50.7268 10.3076 53.0548 10.3972 54.139 10.3972C55.2231 10.3972 57.5545 10.3109 58.5322 10.696C59.184 10.955 59.6862 11.4564 59.949 12.1105C60.3381 13.09 60.2483 15.4142 60.2483 16.4966C60.2483 17.5791 60.3381 19.9066 59.949 20.8828Z" fill="white"/>
</g>
<path d="M147.663 0H116.213V32H147.663V0Z" fill="white"/>
<g clip-path="url(#clip1_24_224)">
<path d="M138.417 12.7405C138.427 12.8826 138.427 13.0248 138.427 13.1669C138.427 17.5019 135.15 22.4969 129.16 22.4969C127.314 22.4969 125.6 21.9588 124.158 21.0248C124.42 21.0552 124.672 21.0654 124.945 21.0654C126.467 21.0654 127.869 20.5476 128.988 19.6644C127.557 19.6339 126.357 18.6898 125.943 17.3903C126.145 17.4207 126.346 17.441 126.558 17.441C126.851 17.441 127.143 17.4004 127.415 17.3294C125.923 17.0248 124.804 15.705 124.804 14.1111V14.0705C125.237 14.3141 125.741 14.4664 126.276 14.4867C125.398 13.8979 124.824 12.8928 124.824 11.7557C124.824 11.1466 124.985 10.5882 125.267 10.1009C126.871 12.0908 129.281 13.3902 131.983 13.5324C131.933 13.2887 131.903 13.035 131.903 12.7811C131.903 10.974 133.355 9.50195 135.16 9.50195C136.098 9.50195 136.945 9.89789 137.54 10.5375C138.276 10.3954 138.982 10.1212 139.607 9.74561C139.365 10.507 138.851 11.1466 138.175 11.5527C138.83 11.4817 139.466 11.2989 140.051 11.0451C139.607 11.6948 139.052 12.2735 138.417 12.7405Z" fill="black"/>
</g>
<path d="M108.925 0H77.4746V32H108.925V0Z" fill="white"/>
<g clip-path="url(#clip2_24_224)">
<path d="M93.7403 8.20312C90.5556 8.20312 87.4082 10.3406 87.4082 13.8C87.4082 16 88.6374 17.25 89.3823 17.25C89.6896 17.25 89.8666 16.3875 89.8666 16.1438C89.8666 15.8531 89.1309 15.2344 89.1309 14.025C89.1309 11.5125 91.0305 9.73125 93.4889 9.73125C95.6027 9.73125 97.1671 10.9406 97.1671 13.1625C97.1671 14.8219 96.506 17.9344 94.3642 17.9344C93.5913 17.9344 92.9302 17.3719 92.9302 16.5656C92.9302 15.3844 93.7496 14.2406 93.7496 13.0219C93.7496 10.9531 90.835 11.3281 90.835 13.8281C90.835 14.3531 90.9002 14.9344 91.133 15.4125C90.7046 17.2688 89.8293 20.0344 89.8293 21.9469C89.8293 22.5375 89.9131 23.1188 89.969 23.7094C90.0745 23.8281 90.0218 23.8156 90.1832 23.7563C91.7476 21.6 91.6917 21.1781 92.3994 18.3562C92.7812 19.0875 93.7683 19.4812 94.5505 19.4812C97.8469 19.4812 99.3275 16.2469 99.3275 13.3313C99.3275 10.2281 96.6643 8.20312 93.7403 8.20312Z" fill="black"/>
</g>
<defs>
<clipPath id="clip0_24_224">
<rect width="14.8991" height="17" fill="white" transform="translate(46.6855 8)"/>
</clipPath>
<clipPath id="clip1_24_224">
<rect width="15.8924" height="16" fill="white" transform="translate(124.158 8)"/>
</clipPath>
<clipPath id="clip2_24_224">
<rect width="11.9193" height="16" fill="white" transform="translate(87.4082 8)"/>
</clipPath>
</defs>
</svg>
